<svg width="41" height="41" viewBox="0 0 41 41" fill="none" xmlns="http://www.w3.org/2000/svg">
<path d="M29.3378 8.58216C29.338 8.99646 29.2154 9.40148 28.9854 9.74603C28.7554 10.0906 28.4284 10.3592 28.0458 10.5178C27.6632 10.6765 27.2421 10.7181 26.8359 10.6374C26.4296 10.5567 26.0563 10.3573 25.7633 10.0644C25.4703 9.77158 25.2707 9.3984 25.1897 8.99209C25.1087 8.58577 25.15 8.16458 25.3084 7.78178C25.4667 7.39897 25.735 7.07173 26.0793 6.84146C26.4236 6.61118 26.8285 6.48821 27.2427 6.48808C27.7981 6.48791 28.3309 6.70844 28.7238 7.10116C29.1167 7.49387 29.3376 8.02661 29.3378 8.58216ZM35.9235 23.1559C32.3652 27.6781 26.6419 30.1586 18.9106 30.5101L15.2842 39.1519C15.1756 39.4047 14.9956 39.6204 14.7663 39.7724C14.5369 39.9244 14.2682 40.0061 13.9931 40.0076L13.9058 40.0077C13.6166 39.9924 13.3395 39.8864 13.1139 39.7047C12.8882 39.5231 12.7255 39.275 12.6488 38.9956L10.0621 29.9716L1.0381 27.3909C0.758161 27.3128 0.509561 27.1493 0.326959 26.9231C0.144357 26.697 0.0368549 26.4195 0.0194414 26.1293C0.00202791 25.8391 0.0755712 25.5508 0.229817 25.3045C0.384063 25.0581 0.611323 24.8661 0.879911 24.7551L9.51728 21.1216C9.86306 13.3885 12.3214 7.66219 16.8575 4.09978C24.028 -1.55815 34.2035 0.0796064 37.1532 0.724578C37.6754 0.836786 38.1542 1.09735 38.532 1.47499C38.9098 1.85264 39.1707 2.33131 39.2833 2.85356C39.9302 5.80342 41.5751 15.9798 35.9235 23.1559ZM36.5609 3.44789C33.9079 2.89011 24.7972 1.39168 18.5862 6.29871C17.9277 6.80932 17.3201 7.3824 16.7719 8.00995C16.8092 9.83909 17.5609 11.581 18.8662 12.8628C20.1715 14.1446 21.9266 14.8644 23.7558 14.868C24.126 14.8679 24.4812 15.0149 24.7432 15.2767C25.0051 15.5385 25.1524 15.8937 25.1525 16.2641C25.1575 18.0936 25.8784 19.8485 27.1609 21.1532C28.4433 22.4578 30.1855 23.2084 32.0143 23.2444C32.6371 22.6913 33.2093 22.0835 33.7238 21.4284C38.6253 15.2126 37.1205 6.10103 36.5609 3.44789Z" fill="#1D3557"/>
</svg>
